<svg xmlns="http://www.w3.org/2000/svg" viewBox="-15 -15 45 45" width="500" height="500">
  <defs>
    <clipPath id="body-clip">
      <rect x="6" y="6" width="12" height="1" />
      <rect x="5" y="7" width="14" height="14" />
      <rect x="6" y="21" width="12" height="1" />
    </clipPath>
    <style>
      .breathe-anim {
        transform-origin: 12px 23px;
        animation: breathe 3.2s infinite ease-in-out;
      }

      .eyes-blink {
        transform-origin: 12px 11px;
        animation: eye-blink 4s infinite ease-in-out;
      }

      #eyes-js, #body-js, #shadow-js {
        transition: transform 0.2s ease-out;
      }
      #shadow-js {
        transform-origin: 12px 23.5px;
      }

      @keyframes breathe {
        0%, 100% { transform: scale(1, 1) translate(0, 0); }
        50% { transform: scale(1.02, 0.98) translate(0, 0.5px); }
      }

      @keyframes eye-blink {
        0%, 10%, 100% { transform: scaleY(1); }
        5% { transform: scaleY(0.1); }
      }
    </style>
  </defs>

  <!-- Ground Shadow (JS-controlled horizontal shift) -->
  <g id="shadow-js">
    <rect x="3" y="23" width="18" height="1" fill="#000000" opacity="0.3"/>
  </g>

  <!-- Static Legs (slightly taller for upward body shift) -->
  <g id="legs" fill="#111111">
    <rect x="7" y="21" width="2" height="2"/>
    <rect x="15" y="21" width="2" height="2"/>
  </g>

  <!-- Upper Body (JS body-shift + CSS breathe) -->
  <g id="body-js">
    <g class="breathe-anim">
      <!-- Tail -->
      <rect x="19" y="18" width="2" height="2" fill="#111111"/>
      <rect x="21" y="15" width="2" height="4" fill="#111111"/>
      <rect x="22" y="12" width="2" height="4" fill="#111111"/>
      <rect x="23" y="9" width="2" height="4" fill="#111111"/>

      <!-- Ears -->
      <rect x="6" y="3" width="2" height="4" fill="#111111"/>
      <rect x="7" y="2" width="1" height="1" fill="#111111"/>
      <rect x="16" y="3" width="2" height="4" fill="#111111"/>
      <rect x="16" y="2" width="1" height="1" fill="#111111"/>
      
      <!-- Head and Torso -->
      <rect id="torso" x="6" y="6" width="12" height="1" fill="#111111"/>
      <rect x="5" y="7" width="14" height="14" fill="#111111"/>
      <rect x="6" y="21" width="12" height="1" fill="#111111"/>

      <!-- Left Arm -->
      <rect x="3" y="14" width="2" height="2" fill="#111111"/>
      <!-- Right Arm -->
      <rect x="19" y="14" width="2" height="2" fill="#111111"/>
      <!-- Eyes wrapper for clipping -->
      <g clip-path="url(#body-clip)">
        <!-- Eyes: JS translate wrapper + CSS blink -->
        <g id="eyes-js">
          <g class="eyes-blink">
            <!-- Left Eye -->
            <rect x="6" y="10" width="5" height="3" fill="#FFFFFF"/>
            <rect x="7" y="13" width="3" height="1" fill="#FFFFFF"/>
            <rect x="8" y="10" width="2" height="2" fill="#111111"/>

            <!-- Right Eye -->
            <rect x="13" y="10" width="5" height="3" fill="#FFFFFF"/>
            <rect x="14" y="13" width="3" height="1" fill="#FFFFFF"/>
            <rect x="14" y="10" width="2" height="2" fill="#111111"/>
          </g>
        </g>
      </g>
    </g>
  </g>
</svg>