<svg xmlns="http://www.w3.org/2000/svg" viewBox="-15 -15 45 45" width="500" height="500">
  <defs>
    <clipPath id="body-clip">
      <rect x="6" y="6" width="12" height="1" />
      <rect x="5" y="7" width="14" height="14" />
      <rect x="6" y="21" width="12" height="1" />
    </clipPath>
    <style>
      .breathe-anim {
        transform-origin: 12px 20px;
        animation: breathe 3.2s infinite ease-in-out;
      }
      .eyes-blink {
        transform-origin: 12px 11px;
        animation: eye-blink 4s infinite ease-in-out;
      }
      #eyes-js, #body-js, #shadow-js {
        transition: transform 0.2s ease-out;
      }
      #shadow-js {
        transform-origin: 12px 23px;
      }
      @keyframes breathe {
        0%, 100% { transform: scale(1, 1) translate(0, 0); }
        50% { transform: scale(1.02, 0.98) translate(0, 0.5px); }
      }
      @keyframes eye-blink {
        0%, 10%, 100% { transform: scaleY(1); }
        5% { transform: scaleY(0.1); }
      }
    </style>
  </defs>

  <!-- 地面阴影 -->
  <g id="shadow-js">
    <rect x="3" y="23" width="18" height="1" fill="#000000" opacity="0.3"/>
  </g>

  <!-- 静态腿部 -->
  <g id="legs" fill="#111111">
    <rect x="7" y="21" width="2" height="2"/>
    <rect x="15" y="21" width="2" height="2"/>
  </g>

  <!-- 上半身 (JS 偏移 + CSS 呼吸动画) -->
  <g id="body-js">
    <g class="breathe-anim">
      <!-- 尾巴 (向右侧延伸，避开手臂) -->
      <rect x="19" y="18" width="2" height="2" fill="#111111"/>
      <rect x="21" y="15" width="2" height="4" fill="#111111"/>
      <rect x="22" y="12" width="2" height="4" fill="#111111"/>
      <rect x="23" y="9" width="2" height="4" fill="#111111"/>

      <!-- 手/胳膊 (改小，类似原版 clawd 的小方块手) -->
      <rect x="3" y="14" width="2" height="2" fill="#111111"/>
      <rect x="19" y="14" width="2" height="2" fill="#111111"/>

      <!-- 耳朵 -->
      <rect x="6" y="3" width="2" height="4" fill="#111111"/>
      <rect x="7" y="2" width="1" height="1" fill="#111111"/>
      <rect x="16" y="3" width="2" height="4" fill="#111111"/>
      <rect x="16" y="2" width="1" height="1" fill="#111111"/>
      
      <!-- 头部和修长的身体 -->
      <rect x="6" y="6" width="12" height="1" fill="#111111"/>
      <rect x="5" y="7" width="14" height="14" fill="#111111"/>
      <rect x="6" y="21" width="12" height="1" fill="#111111"/>
      
      <!-- 眼睛 (半睁眼状态，无嘴巴) -->
      <g clip-path="url(#body-clip)">
        <g id="eyes-js">
          <g class="eyes-blink">
            <!-- 左眼白 (平顶，圆底) -->
            <rect x="6" y="10" width="5" height="3" fill="#FFFFFF"/>
            <rect x="7" y="13" width="3" height="1" fill="#FFFFFF"/>
            <!-- 左瞳孔 -->
            <rect x="8" y="10" width="2" height="2" fill="#111111"/>

            <!-- 右眼白 (平顶，圆底) -->
            <rect x="13" y="10" width="5" height="3" fill="#FFFFFF"/>
            <rect x="14" y="13" width="3" height="1" fill="#FFFFFF"/>
            <!-- 右瞳孔 -->
            <rect x="14" y="10" width="2" height="2" fill="#111111"/>
          </g>
        </g>
      </g>
    </g>
  </g>
</svg>